HIERARCHY
ROOT hips
{
  OFFSET 0 9.313263304106702 1.2146308026317778
  CHANNELS 6 Xposition Yposition Zposition Yrotation Xrotation Zrotation
  JOINT spine
  {
    OFFSET -6.402521e-31 0.5173342420023708 0
    CHANNELS 3 Yrotation Xrotation Zrotation
    JOINT chest
    {
      OFFSET 0 1.130544299341115 0
      CHANNELS 3 Yrotation Xrotation Zrotation
      JOINT upperChest
      {
        OFFSET 0 1.0863555061129995 0
        CHANNELS 3 Yrotation Xrotation Zrotation
        JOINT neck
        {
          OFFSET 0 1.3773706506454462 0
          CHANNELS 3 Yrotation Xrotation Zrotation
          JOINT head
          {
            OFFSET 0 0.7374408940073979 0
            CHANNELS 3 Yrotation Xrotation Zrotation
            JOINT leftEye
            {
              OFFSET 0.25066580148932727 0.6408406698778757 0.15963719178883284
              CHANNELS 3 Yrotation Xrotation Zrotation
              End Site
              {
                OFFSET 0.25066580148932727 0.6408406698778757 0.15963719178883284
              }
            }
            JOINT rightEye
            {
              OFFSET -0.25066576739704244 0.6408406384191823 0.15963727561643756
              CHANNELS 3 Yrotation Xrotation Zrotation
              End Site
              {
                OFFSET -0.25066576739704244 0.6408406384191823 0.15963727561643756
              }
            }
          }
        }
        JOINT leftShoulder
        {
          OFFSET 0.3761817444281191 1.0539491987447769 0
          CHANNELS 3 Yrotation Xrotation Zrotation
          JOINT leftUpperArm
          {
            OFFSET 0.8702844380000002 0 0
            CHANNELS 3 Yrotation Xrotation Zrotation
            JOINT leftLowerArm
            {
              OFFSET 2.198527310000323 0 0
              CHANNELS 3 Yrotation Xrotation Zrotation
              JOINT leftHand
              {
                OFFSET 2.146852313968281 0 0
                CHANNELS 3 Yrotation Xrotation Zrotation
                JOINT leftIndexProximal
                {
                  OFFSET 0.6585177834681599 0.07380250427007962 0.18382213159631788
                  CHANNELS 3 Yrotation Xrotation Zrotation
                  JOINT leftIndexIntermediate
                  {
                    OFFSET 0.3323021288626682 -0.009606893929485771 -0.012820872253340998
                    CHANNELS 3 Yrotation Xrotation Zrotation
                    JOINT leftIndexDistal
                    {
                      OFFSET 0.2045908926985518 -0.0071133989147997845 -0.006828784783599051
                      CHANNELS 3 Yrotation Xrotation Zrotation
                      End Site
                      {
                        OFFSET 0.2045908926985518 -0.0071133989147997845 -0.006828784783599051
                      }
                    }
                  }
                }
                JOINT leftLittleProximal
                {
                  OFFSET 0.6110054258835662 0.07380246363125398 -0.29175655876064077
                  CHANNELS 3 Yrotation Xrotation Zrotation
                  JOINT leftLittleIntermediate
                  {
                    OFFSET 0.3144281999999998 -2.5124724523095665e-9 1.8658118799974588e-7
                    CHANNELS 3 Yrotation Xrotation Zrotation
                    JOINT leftLittleDistal
                    {
                      OFFSET 0.18116185580251631 0.002815456192251098 0.0034826415518049436
                      CHANNELS 3 Yrotation Xrotation Zrotation
                      End Site
                      {
                        OFFSET 0.18116185580251631 0.002815456192251098 0.0034826415518049436
                      }
                    }
                  }
                }
                JOINT leftMiddleProximal
                {
                  OFFSET 0.6637478005691111 0.07380246480054087 0.02046981859247815
                  CHANNELS 3 Yrotation Xrotation Zrotation
                  JOINT leftMiddleIntermediate
                  {
                    OFFSET 0.3705733999999994 -2.9611069152224445e-9 9.35054791928458e-8
                    CHANNELS 3 Yrotation Xrotation Zrotation
                    JOINT leftMiddleDistal
                    {
                      OFFSET 0.22861063500000056 -1.82673876025774e-9 -1.6740782024515788e-7
                      CHANNELS 3 Yrotation Xrotation Zrotation
                      End Site
                      {
                        OFFSET 0.22861063500000056 -1.82673876025774e-9 -1.6740782024515788e-7
                      }
                    }
                  }
                }
                JOINT leftRingProximal
                {
                  OFFSET 0.6561845547265777 0.07380246406440083 -0.13588087571513918
                  CHANNELS 3 Yrotation Xrotation Zrotation
                  JOINT leftRingIntermediate
                  {
                    OFFSET 0.3437531000000005 -2.746796123886952e-9 1.4935781944558357e-7
                    CHANNELS 3 Yrotation Xrotation Zrotation
                    JOINT leftRingDistal
                    {
                      OFFSET 0.1983118991198174 -0.002467117924596085 -0.004538141969590015
                      CHANNELS 3 Yrotation Xrotation Zrotation
                      End Site
                      {
                        OFFSET 0.1983118991198174 -0.002467117924596085 -0.004538141969590015
                      }
                    }
                  }
                }
                JOINT leftThumbProximal
                {
                  OFFSET 0.09767004258864787 -0.14930060425447422 -0.07008212897521154
                  CHANNELS 3 Yrotation Xrotation Zrotation
                  JOINT leftThumbIntermediate
                  {
                    OFFSET 0.36682123028154767 -0.015768465060082004 0.28693641268151077
                    CHANNELS 3 Yrotation Xrotation Zrotation
                    JOINT leftThumbDistal
                    {
                      OFFSET 0.21091084272403915 -0.016756648201192714 0.1933767059105508
                      CHANNELS 3 Yrotation Xrotation Zrotation
                      End Site
                      {
                        OFFSET 0.21091084272403915 -0.016756648201192714 0.1933767059105508
                      }
                    }
                  }
                }
              }
            }
          }
        }
        JOINT rightShoulder
        {
          OFFSET -0.37618174442811925 1.0539491987447769 0
          CHANNELS 3 Yrotation Xrotation Zrotation
          JOINT rightUpperArm
          {
            OFFSET -0.870284438 0 0
            CHANNELS 3 Yrotation Xrotation Zrotation
            JOINT rightLowerArm
            {
              OFFSET -2.1985273100003235 0 0
              CHANNELS 3 Yrotation Xrotation Zrotation
              JOINT rightHand
              {
                OFFSET -2.1468523139682802 0 0
                CHANNELS 3 Yrotation Xrotation Zrotation
                JOINT rightIndexProximal
                {
                  OFFSET -0.6585177834681599 0.07380250427007962 0.18382213159631788
                  CHANNELS 3 Yrotation Xrotation Zrotation
                  JOINT rightIndexIntermediate
                  {
                    OFFSET -0.3323021288626682 -0.009606893929485771 -0.012820872253340998
                    CHANNELS 3 Yrotation Xrotation Zrotation
                    JOINT rightIndexDistal
                    {
                      OFFSET -0.2045908926985518 -0.0071133989147997845 -0.006828784783599051
                      CHANNELS 3 Yrotation Xrotation Zrotation
                      End Site
                      {
                        OFFSET -0.2045908926985518 -0.0071133989147997845 -0.006828784783599051
                      }
                    }
                  }
                }
                JOINT rightLittleProximal
                {
                  OFFSET -0.6110054258835662 0.07380246363125398 -0.29175655876064077
                  CHANNELS 3 Yrotation Xrotation Zrotation
                  JOINT rightLittleIntermediate
                  {
                    OFFSET -0.3144281999999998 -2.5124724523095665e-9 1.8658118799974588e-7
                    CHANNELS 3 Yrotation Xrotation Zrotation
                    JOINT rightLittleDistal
                    {
                      OFFSET -0.18116185580251631 0.002815456192251098 0.0034826415518049436
                      CHANNELS 3 Yrotation Xrotation Zrotation
                      End Site
                      {
                        OFFSET -0.18116185580251631 0.002815456192251098 0.0034826415518049436
                      }
                    }
                  }
                }
                JOINT rightMiddleProximal
                {
                  OFFSET -0.6637478005691111 0.07380246480054087 0.02046981859247815
                  CHANNELS 3 Yrotation Xrotation Zrotation
                  JOINT rightMiddleIntermediate
                  {
                    OFFSET -0.3705733999999994 -2.9611069152224445e-9 9.35054791928458e-8
                    CHANNELS 3 Yrotation Xrotation Zrotation
                    JOINT rightMiddleDistal
                    {
                      OFFSET -0.22861063500000056 -1.82673876025774e-9 -1.6740782024515788e-7
                      CHANNELS 3 Yrotation Xrotation Zrotation
                      End Site
                      {
                        OFFSET -0.22861063500000056 -1.82673876025774e-9 -1.6740782024515788e-7
                      }
                    }
                  }
                }
                JOINT rightRingProximal
                {
                  OFFSET -0.6561845547265777 0.07380246406440083 -0.13588087571513918
                  CHANNELS 3 Yrotation Xrotation Zrotation
                  JOINT rightRingIntermediate
                  {
                    OFFSET -0.3437531000000005 -2.746796123886952e-9 1.4935781944558357e-7
                    CHANNELS 3 Yrotation Xrotation Zrotation
                    JOINT rightRingDistal
                    {
                      OFFSET -0.1983118991198174 -0.002467117924596085 -0.004538141969590015
                      CHANNELS 3 Yrotation Xrotation Zrotation
                      End Site
                      {
                        OFFSET -0.1983118991198174 -0.002467117924596085 -0.004538141969590015
                      }
                    }
                  }
                }
                JOINT rightThumbProximal
                {
                  OFFSET -0.09767004258864787 -0.14930060425447422 -0.07008212897521154
                  CHANNELS 3 Yrotation Xrotation Zrotation
                  JOINT rightThumbIntermediate
                  {
                    OFFSET -0.36682123028154767 -0.015768465060082004 0.28693641268151077
                    CHANNELS 3 Yrotation Xrotation Zrotation
                    JOINT rightThumbDistal
                    {
                      OFFSET -0.21091084272403915 -0.016756648201192714 0.1933767059105508
                      CHANNELS 3 Yrotation Xrotation Zrotation
                      End Site
                      {
                        OFFSET -0.21091084272403915 -0.016756648201192714 0.1933767059105508
                      }
                    }
                  }
                }
              }
            }
          }
        }
      }
    }
  }
  JOINT leftUpperLeg
  {
    OFFSET 0.7715603 -0.3993844658041501 0
    CHANNELS 3 Yrotation Xrotation Zrotation
    JOINT leftLowerLeg
    {
      OFFSET 0 -3.529830000249343 0
      CHANNELS 3 Yrotation Xrotation Zrotation
      JOINT leftFoot
      {
        OFFSET 0 -4.154939295409685 0.004208579085223096
        CHANNELS 3 Yrotation Xrotation Zrotation
        JOINT leftToes
        {
          OFFSET 0 -0.6353414391261847 1.10414981190622
          CHANNELS 3 Yrotation Xrotation Zrotation
          End Site
          {
            OFFSET 0 -0.6015820691747853 1.10414981190622
          }
        }
      }
    }
  }
  JOINT rightUpperLeg
  {
    OFFSET -0.7715603 -0.3993844658041501 0
    CHANNELS 3 Yrotation Xrotation Zrotation
    JOINT rightLowerLeg
    {
      OFFSET 0 -3.529830000249343 0
      CHANNELS 3 Yrotation Xrotation Zrotation
      JOINT rightFoot
      {
        OFFSET 0 -4.154939295409685 0.004208579085223096
        CHANNELS 3 Yrotation Xrotation Zrotation
        JOINT rightToes
        {
          OFFSET 0 -0.6353414391261847 1.10414981190622
          CHANNELS 3 Yrotation Xrotation Zrotation
          End Site
          {
            OFFSET 0 -0.6015820691747853 1.10414981190622
          }
        }
      }
    }
  }
}
MOTION
Frames: 4
Frame Time: 0.03333333333333333
0.012561276724392716 8.937008597634055 1.337673537818268 -5.229207116882571 -3.737424224660008 -3.4259762148898854 1.5450628542809652 3.2968112462046353 2.83145000791416 0.7195460533968121 2.268535844048142 3.1304156025586485 0 0 0 -0.07934495144621212 5.626307070701853 0.44690419438299217 1.3877939612431611 -7.5611535029796775 -0.26321440891031145 0 0 0 0 0 0 -17.44444632502353 0.9981118742367336 -12.633081912573077 -20.032244379416365 3.6800547119720854 -71.10570016766634 -1.459350882131604 -0.000013698470902001336 0.000016364476363096855 -1.6315465953922499 -33.21976608064921 -5.292635395535015 -0.9746388398366772 0.019182876791999173 -7.593778973794917 1.7645943159293156 0.26983559808090696 -17.36749055951342 0.8133639902494354 0.05758669528962 -8.037185997367033 5.768056661311824 1.0246140421815375 -27.035320597931065 1.7221563194030456 0.33148683123030526 -17.396482154424252 1.6516815996919318 0.2992824545496012 -16.497938282399616 2.6623181816623114 -0.07719877006054073 -15.700385058564105 1.7582765267419316 0.2682752561775685 -17.39726911981225 1.8563483732996942 0.3007286335288539 -18.40362612521186 3.642433468510401 0.13687682767701947 -21.12473673928907 2.094791902629902 0.3866045539659783 -20.897751402555325 1.8006300772980004 0.2831258869077779 -17.856106398416944 2.8034630862718295 -0.4444427319301406 4.952374628877355 24.962603394335034 10.51056052735864 21.835833854059338 2.90988004103862 -13.939554030418781 8.247604939188998 15.348253162393416 1.1655307158313521 15.025108996007653 28.18510589747505 11.643812425320458 64.95780281597871 6.69373714002309 -0.000004999435840258406 -3.966976087558441e-7 -0.5478010110229128 -20.178595676777274 6.971771751125244 1.2437399095983297 0.041931708996569575 6.824752033800442 -1.3673238589042487 0.2105374397636567 17.401859155042192 -0.6640023110903915 0.04596555720889387 8.052682767098593 -4.8336995472381235 0.7170924274413639 26.410133283009436 -1.3086880123830416 0.16750897383399793 17.432505906893006 -1.3893047920911503 0.16461791070159715 16.53163119095166 -2.260723450645429 -0.12122028679089658 15.004326522124861 -1.3028914705881225 0.20244181208764195 17.431771618154563 -1.513700954906242 0.23874691177109467 18.440105618071314 -3.0590895276237067 0.024342623179008153 20.44937305483106 -1.6933319442265091 0.3110153118181597 20.93948706202468 -1.4460768499483276 0.23205500412893978 17.891361792963867 -0.9110781045290319 -1.3920445485968946 -4.367421821309039 -29.370870874700536 10.80949394711054 -22.09498941324469 -2.8367664627846283 -15.632816687373326 -11.850488526486352 14.994621905901768 -10.409782231754257 7.574174833856755 2.0783560289320495 12.128587781837792 4.601263024050303 0.5153710184223282 1.2875933771997898 -7.087426342289517 -0.000001193867894186707 -4.928524695161564 0.000001018561986280456 -10.391250712616316 0.6363202271557079 3.399425791014243 -9.84300743981589 7.223697908108911 -4.527688235316817 -1.6533330737897447 -3.650262817862595 3.305438805187842 0.000009399203471481618 -7.2828752332583875 0.000001103503914273776
0.011728350919756022 8.937238346446643 1.3335134180896593 -5.141349470774006 -3.7531801165399723 -3.4226008498541756 1.5452669125598357 3.2969001858612796 2.8280899738747767 0.7192923571290539 2.2686236380986515 3.106629317475613 0 0 0 0.10937377999545168 5.895117147480353 0.5159289722001368 2.24353800446554 -7.306926050041279 0.12067880061534438 0 0 0 0 0 0 -17.444746108569458 0.9926328088506644 -12.65051000717811 -20.011914418416776 3.6840932870602794 -71.0598962706231 -1.4593554696765283 -3.8510634438584353e-7 0.000007777459114124848 -1.6638876851258402 -33.239158831492375 -5.296951958195771 -0.9745295726126053 0.019111484969424917 -7.5948235707263985 1.7645998628877937 0.26982449890042337 -17.3675088955231 0.8133618026737951 0.057594312555218075 -8.03716776673687 5.7680630332124085 1.024600486357429 -27.035282411192313 1.7221522657420834 0.33148507029268864 -17.39649621124666 1.651682239764843 0.29928122723324135 -16.497908509142704 2.662698494345505 -0.07721069622198894 -15.70399622358711 1.7582967945408177 0.2682964673491253 -17.397494853019403 1.856366933386491 0.30073525036575743 -18.403811339069076 3.6425095180466918 0.13687433305002844 -21.125421064724424 2.0947906227961006 0.38661810793117185 -20.8977561883309 1.8006305039792405 0.2831155614566839 -17.8561139468472 2.8034530661364596 -0.4444439059042236 4.952385686832529 24.962604968786344 10.510552712268892 21.835821597716485 2.9098846123952127 -13.939560188177868 8.247600220463456 15.360218762236057 1.1610226089136642 15.030177482862163 28.15712545296747 11.657041848127937 64.99262290656237 6.707215320429678 -0.000009610300516194328 -0.0000027627671962814475 -0.5482726805513876 -20.21918018597412 6.959684598135958 1.2437242251994474 0.04193041166048625 6.8247808383882385 -1.3673066814863373 0.2105267808613347 17.40176197489109 -0.6639984160084593 0.04598514064820946 8.052589555117011 -4.8336961440228645 0.7170957894384069 26.41012870496698 -1.3086909998241356 0.16750218363644975 17.432504277765524 -1.3893058589988738 0.16462848953434883 16.53163119095166 -2.260792260801014 -0.12120828057212799 15.00433730227365 -1.3029006463390693 0.20245253768602586 17.431766730742766 -1.513699141254635 0.23874669832583006 18.440105618071314 -3.059094429827259 0.02434263818674938 20.449393040499302 -1.693328210542864 0.311032387542673 20.93946388858215 -1.4460835713296805 0.23204363817405801 17.891332645694458 -0.9110820538985434 -1.3920176467877279 -4.367425653264933 -29.37086916947347 10.809480909163238 -22.09497421484064 -2.8367750962425293 -15.63281846051189 -11.850478114402106 14.996181867861198 -10.406525282443916 7.556825522910997 1.9810964376785594 12.038165006763228 4.579695169079758 0.5163001744167033 1.3744255303432118 -7.08727756610046 -3.0123587155626964e-7 -4.928524695161564 1.6732576655181597e-7 -10.390137043418635 0.6371926776171665 3.423947087096724 -9.90963490572153 7.198385657138563 -4.575455171630542 -1.6896875021119382 -3.615475061280365 3.3180783039166073 0.000008202538967944494 -7.282878676128769 -0.0000014786513853665796
0.010844088921492748 8.937261754816227 1.328697593082481 -4.987168715007939 -3.763211758138002 -3.403832130406513 1.545476619839001 3.297045354212165 2.8131557228793933 0.715744408675243 2.2688357536733346 3.069961184188971 0 0 0 0.37534687669647643 6.231742022085363 0.6159237189262856 3.4271381463707233 -7.016354825192311 0.7078841466011141 0 0 0 0 0 0 -17.431102402662283 0.9903611106545133 -12.667451761804294 -20.028777065669725 3.6762574157766217 -71.00556401001475 -1.4593604839697962 -0.000011663187856012118 -0.0000059154433236288574 -1.6854708700797183 -33.24779917662202 -5.313370481603312 -0.9526142596554685 0.019433702830307986 -7.629144126074709 1.7632759713621027 0.26941607041024557 -17.35395577561875 0.8119936367863462 0.05740380087425193 -8.023671338440224 5.7666963184013 1.0236590505241845 -27.01937719348165 1.7221537591961242 0.331483709568167 -17.396502120724158 1.65168714699048 0.2992877373461079 -16.497925851676282 2.6696547207295978 -0.07685843423323857 -15.770264039793346 1.7614511544725104 0.26929456640555466 -17.42971615518868 1.8594976310900573 0.30177652176190123 -18.436025545754227 3.645332360671487 0.1374951750127809 -21.153347292190276 2.0947942489918656 0.3866191751725266 -20.8977561883309 1.8006181302231938 0.28311457426885367 -17.85609827184739 2.8034637258549324 -0.44445532547031386 4.952402273764594 24.977267551171067 10.507312940428784 21.840407061666166 2.909888826494525 -13.939553150738924 8.247576575811262 15.377868531884582 1.1536145046022575 15.04044340782288 28.12124637300913 11.665672346265165 65.02785574722631 6.691893200603522 0.0000016727184376305408 -6.330927171221817e-8 -0.527202778584156 -20.227439936395502 6.939253883660262 1.2463946072801462 0.04393469254858417 6.792101174181653 -1.375194030366165 0.21298760010026227 17.50298849790266 -0.6721578000397149 0.04713358997859395 8.153841655494038 -4.829671954755999 0.7145212475361366 26.35254721304482 -1.3086866253568168 0.16750913391724073 17.4324951090226 -1.3893103400113012 0.16461189424060216 16.5316328279205 -2.230341536320093 -0.12939114691650277 15.006820309306708 -1.304260074246771 0.20287850669922444 17.449204100888227 -1.5150697606590267 0.2391914115418315 18.457751038983574 -3.0563375225976386 0.023867019522628527 20.415736061046417 -1.6954929919708543 0.3118638419558194 20.968004882857183 -1.4482834617074827 0.23277159291785235 17.919686991679853 -0.9110774640907321 -1.3920335530161267 -4.367405641939271 -29.34869303572648 10.814609212150371 -22.08822388170458 -2.8367693864667785 -15.632811367957729 -11.850462775108282 14.99801232293291 -10.409060873577939 7.517005768138839 1.817207796115368 11.959970358820307 4.545124094509346 0.521354254993744 1.4602215673955494 -7.084434223720008 0.0000064660768981784636 -4.928521267393322 -0.000001555483078132442 -10.388052199485605 0.6093902413569107 3.453373036797999 -9.992916791379457 7.215635837440713 -4.65586982869958 -1.7767438319976647 -3.603853062778146 3.3440796051240897 0.000003941502822078653 -7.282878676128769 -0.000004060811712677948
0.009900311177427118 8.937224474820223 1.3231082555709848 -4.75795225671743 -3.769360682329226 -3.377158880370454 1.5457864256082867 3.2972491030526085 2.7942173781167563 0.70816532723065 2.269177531099808 3.024030722021116 0 0 0 0.7107938971205147 6.688022610019115 0.7642711927265484 4.903482417119576 -6.71376814942093 1.5235697530158787 0 0 0 0 0 0 -17.399836129529717 0.989495361683789 -12.692423995303582 -20.092101083090995 3.659024986387596 -70.93320023154712 -1.459367632004842 6.641850563550455e-7 -3.574482917647117e-7 -1.6792095986930788 -33.22838817917196 -5.331138940685223 -0.9675042883213398 0.0138496610927872 -7.680990800165581 1.762456633751184 0.26915353211440834 -17.345595930612472 0.8111415106166209 0.05729110269649594 -8.015290867528785 5.769716763247124 1.0252165826102948 -27.019707363882315 1.7211053949155735 0.33110030543096974 -17.38568563601449 1.6506351546817153 0.2989442221745127 -16.487115742765607 2.6759611917898565 -0.07588707241458005 -15.80394529796373 1.762156140871733 0.26950790545368153 -17.43694001176309 1.8601998489043454 0.30201686237964065 -18.443245636698876 3.645362399509351 0.13750771484932053 -21.15364029537063 2.095773201916524 0.3870068506035133 -20.907959142601335 1.8016408915908457 0.2834405597034121 -17.86652150127013 2.803466497381703 -0.4444508697050382 4.952375479489305 24.967430801675082 10.50949420360677 21.837327847608936 2.9098708573183933 -13.939539955541482 8.247604434424327 15.400976120829512 1.144533542760081 15.051546428722569 28.081983545119733 11.690847038309624 65.06624225287524 6.659273639344438 0.000005246985790003574 -0.0000026957835951345783 -0.5142859894909108 -20.18743363319512 6.922729683780764 1.2428601456349033 0.04598435357537582 6.768851126838468 -1.3788604634260242 0.21416294775195036 17.550226732452987 -0.6759589540964652 0.04765290798174875 8.201001152629683 -4.828803897654474 0.7139772447329746 26.340129418575817 -1.3086877989943917 0.16751401645614725 17.43250264863801 -1.3893150344052545 0.164619031284133 16.53163610185809 -2.211862597359999 -0.13522298342042785 15.046338922020654 -1.3061443534509822 0.20343670475006614 17.473321348299613 -1.5169322243488468 0.23981445830353876 18.482035501039817 -3.062353246092776 0.026280084232971727 20.40632413741014 -1.6948859294522005 0.31161320231995837 20.959976031172793 -1.4476722385184486 0.23257557020844807 17.911868889993873 -0.9110845089120192 -1.3920208493840411 -4.367419692444635 -29.344881027880405 10.815495809012972 -22.08705482831157 -2.836771157432393 -15.632804275403814 -11.850481724512742 15.000930931396566 -10.426540607263032 7.454886960932992 1.576177227048676 11.87872288186627 4.4953025748435875 0.5250163722912047 1.5541629899504033 -7.080187383900589 0.0000022573018674255244 -4.928524695161564 -6.951357284924277e-7 -10.369889551178268 0.5704401429726252 3.4976950928053845 -10.093272712220424 7.239847439400082 -4.773737663586759 -1.9435357544015728 -3.5930644257305593 3.390197525728171 -0.0000076313625124248 -7.2875868261218 0.0000028233540567673654
